<?xml version="1.0" encoding="UTF-8"?>
<svg id="Layer_1" data-name="Layer 1" xmlns="http://www.w3.org/2000/svg" width="100" height="100" viewBox="0 0 100 100">
  <defs>
    <style>
      .cls-1, .cls-2 {
        fill: #fff;
      }

      .cls-3 {
        fill: #c23c2d;
      }

      .cls-4 {
        fill: #15389c;
      }

      .cls-2 {
        stroke: #afafaf;
        stroke-miterlimit: 10;
        stroke-width: .25px;
      }
    </style>
  </defs>
  <path class="cls-3" d="m5.33,58.63c.44,2.11,1.03,4.21,1.76,6.24h0l.05.15c.54,1.49,1.17,2.97,1.87,4.42.55,1.14,1.16,2.28,1.82,3.38v.02h.06c.22.38.45.75.68,1.12.12.19.24.38.37.57.25.38.5.75.76,1.12.13.19.26.37.39.55.26.37.53.73.81,1.09,0,0,.01.02.02.03.05.07.11.13.16.2.74.96,1.52,1.9,2.34,2.8.61.68,1.24,1.33,1.89,1.97.22.21.43.42.65.63.19.18.39.36.59.54.5.46,1.01.9,1.53,1.34.18.15.37.31.56.46.74.6,1.49,1.18,2.27,1.73,2.35,1.67,4.82,3.12,7.39,4.31.14.06.27.13.41.19.99.45,1.99.86,3,1.24.24.09.48.18.73.26.28.1.56.2.85.29.68.22,1.36.43,2.04.62.06.02.12.03.19.05,1.96.54,3.96.95,5.98,1.23.19.03.37.05.56.07,1.92.24,3.86.36,5.82.36,5.63,0,11.12-1,16.28-2.93,1.12-.42,2.21-.88,3.3-1.38,2.57-1.2,5.04-2.64,7.39-4.31.77-.55,1.53-1.13,2.27-1.73.27-.22.53-.44.79-.66.26-.22.51-.44.76-.66.38-.34.75-.68,1.12-1.03,1.76-1.67,3.39-3.47,4.88-5.4.06-.08.12-.15.18-.23.14-.18.27-.36.41-.54.27-.36.53-.73.79-1.1.26-.37.51-.75.76-1.12.12-.19.25-.38.37-.57.2-.32.4-.64.59-.96.03-.05.06-.1.09-.16h.04v-.02c.66-1.1,1.27-2.24,1.83-3.38.7-1.44,1.33-2.93,1.87-4.41l.04-.1c.74-2.04,1.33-4.16,1.77-6.29.19-.9.35-1.81.48-2.7.32-2.22.49-4.5.49-6.76v-.04H4.37v.04c0,2.26.16,4.53.49,6.76.13.89.29,1.8.48,2.7Z"/>
  <path class="cls-2" d="m97.3,49.17c0-2.27-.16-4.53-.49-6.75-.13-.91-.29-1.81-.48-2.7-.44-2.13-1.03-4.23-1.77-6.29h0v-.03s-.02-.02-.02-.02v-.02h0c-.55-1.51-1.17-2.99-1.87-4.44-.56-1.15-1.16-2.27-1.81-3.38-.92-1.55-1.93-3.05-3.03-4.5-.06-.08-.12-.15-.18-.23-1.49-1.93-3.12-3.73-4.88-5.4-1.55-1.47-3.2-2.83-4.94-4.07-7.62-5.44-16.57-8.41-25.94-8.61v46.37H4.63v-4.53c-.15,1.52-.23,3.05-.23,4.59h0s92.9,0,92.9,0h0Z"/>
  <path class="cls-4" d="m51.88,49.11V2.74c-.34,0-.68-.01-1.03-.01-9.74,0-19.06,2.98-26.96,8.62-1.74,1.25-3.39,2.61-4.94,4.07-1.76,1.67-3.39,3.47-4.88,5.4-.06.08-.12.15-.18.23-1.1,1.44-2.11,2.95-3.03,4.5-.65,1.1-1.26,2.23-1.81,3.38-.7,1.44-1.33,2.92-1.87,4.44h0v.02s-.01,0-.01.01v.04s-.01,0-.01,0c-.74,2.06-1.33,4.16-1.77,6.29-.18.89-.34,1.79-.48,2.7-.1.72-.19,1.44-.26,2.16v4.53h47.25Z"/>
  <polygon class="cls-1" points="32.55 26.88 39.49 21.84 30.91 21.84 28.26 13.67 25.6 21.84 17.02 21.84 23.96 26.88 21.31 35.04 28.26 30 35.2 35.04 32.55 26.88"/>
</svg>