<?xml version="1.0" encoding="UTF-8"?>
<svg id="Layer_1" data-name="Layer 1" xmlns="http://www.w3.org/2000/svg" width="100" height="100" viewBox="0 0 100 100">
  <defs>
    <style>
      .cls-1 {
        fill: #cf142b;
      }

      .cls-2 {
        fill: none;
      }

      .cls-2, .cls-3, .cls-4, .cls-5 {
        stroke: #000;
        stroke-miterlimit: 10;
        stroke-width: .12px;
      }

      .cls-3 {
        fill: rgba(241, 219, 78, .99);
      }

      .cls-4 {
        fill: #f1db4e;
      }

      .cls-5 {
        fill: #fff;
      }
    </style>
  </defs>
  <circle class="cls-1" cx="50.32" cy="50.06" r="47.52"/>
  <g>
    <path class="cls-3" d="m52.64,67.16c.02-.07.07-.82.05-.82s-1.13-1.3-1.11-1.3,1.42.31,1.42.27.55-1.37.55-1.4.67,1.62.67,1.62l1.37.6-.96.8s.22,1.54.22,1.57-.96-.92-.96-.92l-1.06.12s-.14-.48-.19-.53h0Z"/>
    <path class="cls-5" d="m45.17,46.9c-.92.47-4.43,4.49-4.91,5.12-.4.91-1.19,2.06-2.01,2.8-.87.66-1.35,1.55-1.23,2.4,0,1.06.58,1.78,1.06,2.52.28.34.66.56,1.06.59.82.11.89.36,1.3.52,1.62,2.2,4.03,3.83,5.77,5.11,1.11.58,1.88,1.17,2.14,1.49.51.97.42,1.92.35,2.38-.43,1.62-.86,3.25-1.29,4.87-.22,1.33.94,1.03,1,.76.52-.67,1.3-.2,2.4-4.11.51-.68,1.02-1.37,1.52-2.05,0,0,.59-.23.59-.29.89-1.07.21-1.68-.29-1.88-.37-.14-.74-.27-1.11-.41,0,0-1.29-1.29-1.35-1.29-.61-1.78-3.62-5.59-4.32-6.12-.48-.5-.71-.72-1.17-1-.71-.34-.93-.45-1.37-.62-.36-.14-.1-.54.13-.72,2.38-1.3,4.27-2.74,6.56-4.21.12-.08.23-.16.35-.23-.27-1.56-.55-3.13-.82-4.69-1.27-.45-2.54-.9-3.81-1.35-.2.14-.35.27-.53.41h0Z"/>
    <path class="cls-4" d="m48.36,71.6s2.39-.48,2.39-.48c0,0-.28.88-.29.88l-2.36.71.27-1.11Z"/>
    <path class="cls-2" d="m42.18,62.66c.46-1.22,1.73-2.18,2.58-2.45"/>
    <path class="cls-2" d="m48.28,71.63c.15-.04.83-.24,1.03-.27.21-.05.42-.1.63-.17.23-.05.38-.09.63-.14.19-.07.38-.12.58-.17m-3.3,2.22s.18-.17.3-.24c.14-.04.6-.24.78-.27.19-.05.38-.1.56-.17.21-.05.34-.09.56-.14.17-.07.34-.12.52-.17"/>
    <path class="cls-2" d="m48.81,63.01h-.03c.11,0,.04,0-.1.17-.05.14-.49.44-.82.44-.16.02-.4.03-.56.03-.05,0-.11-.03-.15-.03"/>
    <path class="cls-2" d="m48.78,70.03h.03s.09,0,.14,0c.18,0,.35.03.51.03.17,0,.34.05.51.05.17.02.38.02.56.04.2,0,.36.05.57.05.17,0,.26.03.44.03l-.44-.03c.17,0,.26.03.44.03"/>
    <path class="cls-2" d="m47.62,74.19s.17-.17.27-.24c.13-.04.55-.24.72-.27.17-.05.34-.1.51-.17.19-.05.31-.09.51-.14.16-.07.31-.12.48-.17"/>
    <path class="cls-2" d="m50.81,68.26c-.1.28.03.35.08.47.09.12.32.3.68.41.14.04.25.07.41.14.11,0,.16.04.24.07"/>
    <path class="cls-2" d="m37.32,58h.03c-.11,0-.04,0,.14-.14.11-.12.2-.18.31-.31"/>
    <path class="cls-2" d="m39.53,60.43s1.98-.99,2.19-1.2c.15-.11.26-.22.44-.34.12-.06.2-.14.31-.2.09-.13.21-.21.27-.33.12-.1.07-.22.17-.34.05-.13.13-.35.16-.46"/>
    <path class="cls-2" d="m45.57,59.01c.01.07-.03.29-.03.45,0,.19-.25.78-.55.96"/>
    <path class="cls-2" d="m42.05,58.99s.31.1.81.25c.6.22,1.85,1,1.97,1.11.13.1.35.19.44.31.14.12.24.25.34.37.12.15.23.28.31.41.38.31,1.4,2.44,1.43,2.56.06.11.13.27.17.37.08.09.13.21.2.34.07.17.15.25.24.37.11.08.26.23.41.31.15.13.3.18.41.27.16.07,1.96,1.2,2.04,1.26.16.13.67.65.31,1.03-.15.13-.28.3-.41.37-.13.13-.31.19-.46.26-.81.24-1.22.15-1.38.15h-.17"/>
    <path class="cls-2" d="m38.08,54.97c.23.09.14.02.34.12.14.06.23.06.37.11.15.05.55.12.75.32.14.13.25.24.41.33.19.13.32.19.55.28.19.07.41.15.61.16.2.01.25,0,.45,0h.48-.48.48"/>
    <path class="cls-4" d="m38.02,57.25c.51-.03,1.36.12,1.38.12,0,0,1.12-.02,1.12-.02.59-.06.72-.28.82-.44.22-.34.37-.46.55-.72.27-.2.65.27.66.27.95.9.19,2.01.14,2.05-.48.44-.58.47-.87.19-.29-.34-.37-.49-.61-.61-.46-.22-1.41-.05-1.43-.05s-.49.19-.49.19c-.23.09-.38.29-.78.36-.41.03-.55-.01-.75-.34-.27-.43-.14-.94.27-.99h0Z"/>
    <path class="cls-3" d="m64.71,36.57c-.07.01-.75.34-.74.36.01.02-.58,1.63-.59,1.6-.01-.02-.42-1.39-.47-1.37-.04.02-1.47.19-1.49.2-.02.01,1.08-1.38,1.08-1.38l-.15-1.49,1.17.45s1.24-.95,1.26-.96c.02-.01-.33,1.29-.33,1.29l.62.87s-.35.36-.37.43h0Z"/>
    <path class="cls-5" d="m50.72,53.01c.86.57,6.09,1.66,6.87,1.78.99-.09,2.38.03,3.43.38,1,.44,2.02.42,2.7-.1.93-.51,1.26-1.38,1.68-2.16.16-.41.17-.85,0-1.21-.31-.77-.12-.96-.19-1.39,1.13-2.49,1.36-5.39,1.63-7.53-.03-1.25.1-2.21.25-2.6.6-.92,1.47-1.3,1.91-1.47,1.63-.42,3.25-.84,4.88-1.26,1.26-.46.44-1.32.18-1.24-.84-.12-.81-1.03-4.76-.08-.85-.11-1.69-.22-2.54-.32,0,0-.49-.4-.54-.37-1.37-.25-1.57.64-1.49,1.18.06.39.13.78.19,1.17,0,0-.49,1.76-.46,1.81-1.25,1.41-3.12,5.93-3.24,6.8-.06.82-.37.67-.28,1.46,0,.62-.07.23.14,1.51.05.38-.42.36-.69.24-2.3-1.44-4.48-2.38-6.88-3.66-.13-.06-.25-.13-.38-.19-1.23,1-2.46,2.01-3.69,3.02.23,1.33.46,2.66.69,3.98.22.11.41.17.62.26h0Z"/>
    <path class="cls-4" d="m70.69,38.12s-1.59-1.84-1.59-1.84c0,0,.9-.19.91-.18l1.78,1.71-1.1.31h0Z"/>
    <path class="cls-2" d="m65.93,47.9c-1.29.2-2.75-.44-3.4-1.05"/>
    <path class="cls-2" d="m70.75,38.19c-.11-.11-.62-.61-.74-.77-.15-.16-.3-.32-.46-.46-.16-.18-.27-.29-.43-.48-.16-.13-.29-.27-.43-.43m3.55,1.79s-.24-.08-.35-.14c-.1-.1-.51-.41-.62-.55-.14-.14-.28-.28-.42-.4-.14-.16-.25-.25-.39-.42-.15-.11-.27-.24-.4-.37"/>
    <path class="cls-2" d="m62.97,41.94s.01.02.02.03c-.05-.09-.03-.03.2,0,.15-.02.63.21.79.5.09.13.23.33.31.47.02.04.02.11.05.15"/>
    <path class="cls-2" d="m69.11,38.53s-.01-.02-.02-.03c.02.04-.04-.08-.07-.12-.09-.15-.15-.32-.22-.46-.08-.15-.12-.32-.21-.47-.06-.16-.17-.34-.24-.51-.09-.18-.14-.34-.24-.52-.08-.15-.1-.24-.19-.4l.19.4c-.08-.15-.1-.24-.19-.4"/>
    <path class="cls-2" d="m73.3,37.5s-.23-.06-.34-.12c-.1-.09-.48-.36-.59-.49-.13-.13-.26-.25-.4-.36-.14-.14-.23-.23-.37-.38-.14-.1-.26-.21-.38-.33"/>
    <path class="cls-2" d="m66.58,37.63c.29-.05.29-.2.37-.3.06-.14.1-.42.02-.79-.04-.14-.06-.25-.08-.42-.04-.1-.05-.16-.06-.24"/>
    <path class="cls-2" d="m64.24,54.41s-.01-.02-.02-.03c.05.09.03.03-.19-.05-.16-.04-.26-.09-.42-.12"/>
    <path class="cls-2" d="m65.27,51.3s-1.83-1.24-2.12-1.32c-.17-.08-.32-.12-.52-.22-.11-.07-.22-.11-.33-.17-.16-.01-.28-.08-.42-.08-.15-.05-.22.05-.38.02-.13.02-.37.05-.48.09"/>
    <path class="cls-2" d="m61.08,46.73c.06-.04.27-.11.41-.2.17-.09.81-.16,1.11,0"/>
    <path class="cls-2" d="m62.79,49.81s-.07-.32-.18-.83c-.11-.63-.03-2.1,0-2.26.02-.16,0-.4.05-.53.04-.18.1-.33.16-.48.07-.18.13-.34.21-.47.08-.48,1.44-2.41,1.53-2.5.07-.1.17-.24.24-.33.04-.11.12-.21.2-.35.11-.15.14-.25.21-.39.01-.14.07-.34.07-.51.04-.2.02-.35.04-.49-.02-.17.09-2.3.1-2.4.03-.21.24-.9.74-.78.18.07.4.1.52.18.18.05.32.18.45.28.61.59.73.99.81,1.13.03.05.06.1.08.15"/>
    <path class="cls-2" d="m61.22,55.17s-.01-.02-.02-.03c.05.08.02.04-.04-.14-.02-.15-.06-.36-.09-.5-.03-.15-.1-.32-.08-.42-.05-.15-.02-.28,0-.43.04-.19.06-.32.07-.51.02-.22,0-.38.02-.6-.06-.17-.07-.32-.16-.5-.08-.17-.14-.32-.24-.49-.08-.14-.16-.28-.23-.42l.23.42c-.08-.14-.16-.28-.23-.42"/>
    <path class="cls-4" d="m63.24,54.17c-.28-.43-.56-1.25-.57-1.26l-.57-.97c-.34-.49-.6-.49-.79-.5-.41-.03-.58-.1-.89-.12-.31-.14-.08-.7-.09-.71.32-1.27,1.66-1.15,1.72-1.12.62.2.69.28.59.67-.16.42-.25.57-.23.84.03.51.65,1.26.66,1.27,0,.01.41.34.41.34.19.16.44.19.7.51.23.34.26.48.07.82-.24.45-.75.58-1,.25h0Z"/>
    <g>
      <path class="cls-3" d="m31.59,42.32c.05.05.69.44.71.42.01-.02,1.68-.41,1.67-.38-.01.02-.93,1.12-.89,1.14.04.02.96,1.13.99,1.14.02.01-1.74-.15-1.74-.15l-1.17.94-.26-1.22s-1.47-.52-1.49-.53c-.02-.01,1.26-.43,1.26-.43l.38-1s.49.09.56.07h0Z"/>
      <path class="cls-5" d="m53.01,45.03c0-1.03-1.94-6-2.28-6.72-.62-.78-1.28-2.01-1.56-3.07-.18-1.07-.76-1.92-1.57-2.2-.93-.5-1.85-.3-2.72-.23-.43.09-.8.32-1.01.67-.47.68-.73.63-1.06.92-2.7.42-5.25,1.81-7.2,2.76-1.03.71-1.9,1.13-2.31,1.22-1.1,0-1.89-.52-2.28-.79-1.24-1.13-2.48-2.26-3.73-3.39-1.08-.8-1.34.36-1.14.53.36.77-.42,1.24,2.54,4.03.37.77.75,1.53,1.12,2.3,0,0-.06.63-.01.66.54,1.29,1.4.96,1.8.6.29-.27.59-.53.88-.8,0,0,1.74-.55,1.77-.6,1.87.28,6.67-.64,7.47-1.01.71-.4.76-.06,1.38-.57.52-.34.23-.07,1.19-.94.29-.25.53.16.58.44.05,2.71.46,5.06.71,7.76.02.14.03.28.05.42,1.51.48,3.03.96,4.54,1.43.98-.92,1.97-1.84,2.95-2.76-.03-.24-.08-.44-.12-.66h0Z"/>
      <path class="cls-4" d="m29.61,36.48s-.67,2.34-.67,2.34c0,0-.65-.65-.65-.66l.46-2.42.86.75Z"/>
      <path class="cls-2" d="m40.4,35.11c.87.97,1.14,2.54.98,3.42"/>
      <path class="cls-2" d="m29.63,36.39c-.03.16-.17.85-.23,1.04-.05.21-.1.42-.14.63-.07.23-.09.38-.17.62-.02.2-.07.39-.12.6m-.45-3.95s.07.24.07.37c-.02.14-.06.65-.12.82-.04.19-.08.38-.11.57-.05.21-.08.34-.14.56-.01.18-.05.36-.09.54"/>
      <path class="cls-2" d="m37.03,40.84s.01-.02.02-.03c-.05.09-.01.04-.1-.17-.1-.11-.17-.64-.02-.93.06-.15.16-.37.23-.51.02-.04.08-.08.1-.12"/>
      <path class="cls-2" d="m30.82,37.57s-.01.02-.02.03c.02-.04-.04.08-.06.12-.08.16-.19.3-.27.44-.08.15-.2.28-.28.43-.1.14-.19.33-.29.48-.1.17-.21.3-.3.48-.08.15-.15.21-.23.38l.23-.38c-.08.15-.15.21-.23.38"/>
      <path class="cls-2" d="m27.66,34.63s.07.23.09.35c-.02.13-.04.6-.09.76-.04.18-.07.35-.08.53-.05.19-.06.32-.11.52,0,.17-.03.33-.07.5"/>
      <path class="cls-2" d="m31.45,40.19c-.2-.21-.32-.14-.46-.15-.15.03-.41.15-.68.42-.1.11-.18.19-.31.3-.06.09-.11.12-.17.18"/>
      <path class="cls-2" d="m46.77,32.95s-.01.02-.02.03c.05-.09.01-.04.06.18.06.16.07.26.13.41"/>
      <path class="cls-2" d="m43.6,33.79s-.04,2.22.05,2.5c.03.18.08.33.1.55,0,.13.03.24.04.37.07.14.09.28.17.39.04.15.16.16.23.31.09.1.25.28.34.36"/>
      <path class="cls-2" d="m42.08,39.8c-.07-.02-.24-.16-.39-.23-.17-.09-.58-.59-.6-.93"/>
      <path class="cls-2" d="m43.72,36.68s-.23.23-.59.6c-.47.43-1.74,1.18-1.89,1.24-.15.07-.33.23-.47.25-.17.07-.33.09-.49.13-.19.04-.36.08-.5.08-.45.19-2.81.12-2.93.09-.13,0-.3-.01-.41-.02-.11.03-.25.02-.4.02-.18-.01-.29.02-.44.04-.12.06-.32.13-.46.22-.19.08-.3.18-.43.24-.13.11-1.97,1.18-2.06,1.23-.19.08-.88.29-1.06-.2-.04-.19-.13-.39-.14-.54-.06-.18-.02-.36-.01-.53.16-.83.43-1.15.5-1.3.03-.05.05-.1.08-.15"/>
      <path class="cls-2" d="m49.06,35.06s-.01.02-.02.03c.04-.08.02-.04-.09.11-.12.1-.26.25-.37.34-.11.11-.21.26-.31.3-.1.13-.22.17-.35.24-.18.07-.3.13-.46.22-.2.11-.32.21-.51.31-.11.15-.23.24-.33.41-.1.16-.19.29-.28.47-.07.14-.15.28-.22.42l.22-.42c-.07.14-.15.28-.22.42"/>
      <path class="cls-2" d="m47.53,46.67s.02-.04.03-.06c-.06.11-.04.08.02-.11,0-.23.05-.5.06-.7.03-.21.07-.44.07-.65-.01-.25-.01-.48-.05-.72,0-.22-.03-.45-.04-.67,0-.22-.02-.4-.07-.61,0-.16-.01-.37-.05-.56.02-.15-.02-.29-.05-.41-.06-.23-.08-.37-.14-.61-.04-.13-.07-.3-.13-.49-.02-.18-.12-.42-.16-.58-.05-.12-.11-.27-.13-.41-.06-.13-.14-.28-.16-.43-.06-.11-.12-.28-.19-.45-.06-.13-.1-.3-.16-.43-.06-.17-.14-.31-.18-.48-.06-.06-.07-.12-.1-.17"/>
      <path class="cls-4" d="m47.12,33.92c-.21.47-.73,1.15-.74,1.17,0,0-.5,1.01-.5,1.01-.22.55-.08.77.02.93.2.35.24.54.38.81.06.34-.54.45-.55.46-1.24.43-1.87-.76-1.88-.82-.17-.63-.15-.73.23-.86.44-.1.61-.11.83-.26.41-.31.7-1.23.71-1.25,0-.02.06-.52.06-.52.03-.25-.08-.47.04-.86.16-.38.26-.48.65-.51.5-.05.89.31.75.7h0Z"/>
    </g>
    <path class="cls-4" d="m45.48,46.14c-.18-.17,3.48,1.33,3.98,1.34.69-.25,3.53-2.65,3.53-2.65.03.24.13.85.4.97-1.1.89-2.09,1.75-3.19,2.64.08,1.41-.18,2.91.54,4.48,0,0-.86.02-.86,0-.76-.76-1.02-4.4-1.02-4.4-1.2-.54-2.41-1.06-3.61-1.6.17-.11.31-.46.24-.79h0Z"/>
    <path class="cls-2" d="m49.02,49.82c.06-.04-.67.34-.86.43-3.38,1.8-5.11,4.42-5.22,4.52-.06.11-.17.26-.26.41-.08.12-.19.25-.27.37-.1.14-.32.43-.44.55-.01.08.06-.03.03.03"/>
    <path class="cls-2" d="m51.33,47.68c-.07-.03.61.44.78.56,3.15,2.18,6.27,2.52,6.41,2.58.13,0,.31.03.48.05.14.01.31.06.45.07.17.03.53.09.69.14.08-.02-.05-.04,0-.04"/>
  </g>
</svg>