<?xml version="1.0" encoding="UTF-8"?>
<svg id="Layer_1" data-name="Layer 1" xmlns="http://www.w3.org/2000/svg" width="100" height="100" xmlns:xlink="http://www.w3.org/1999/xlink" viewBox="0 0 100 100">
  <defs>
    <style>
      .cls-1 {
        fill: none;
      }

      .cls-2 {
        clip-path: url(#clippath);
      }

      .cls-3 {
        fill: #fff;
      }

      .cls-4 {
        fill: #f0b543;
      }

      .cls-5 {
        fill: #8f2a35;
      }

      .cls-6 {
        fill: #c9473b;
      }

      .cls-7 {
        fill: #0a228b;
      }

      .cls-8 {
        fill: #364582;
      }

      .cls-9 {
        fill: #347851;
      }

      .cls-10 {
        clip-path: url(#clippath-1);
      }
    </style>
    <clipPath id="clippath">
      <circle class="cls-1" cx="-68.74" cy="50.06" r="49.06"/>
    </clipPath>
    <clipPath id="clippath-1">
      <rect class="cls-1" x="-162.18" y="-4.44" width="186.89" height="109.03"/>
    </clipPath>
  </defs>
  <g>
    <path class="cls-4" d="m38.77,50.06l-25.52,17-5.87,3.91c-.9-1.86-1.68-3.79-2.34-5.77-.08-.23-.15-.46-.22-.69l21.69-14.45-21.69-14.45c.07-.23.14-.46.22-.69.66-1.98,1.44-3.91,2.34-5.77l5.87,3.91,25.52,17Z"/>
    <g>
      <path class="cls-3" d="m97.76,60.26c-.47,2.18-1.09,4.31-1.85,6.38-.05.14-.1.28-.16.42h-33.9l-36.03,24.17s-.09-.05-.14-.08c-1.97-1.2-3.84-2.54-5.61-4,0,0-.01,0-.02-.01l29.92-20.07,10.14-6.8h37.64Z"/>
      <g>
        <g>
          <path class="cls-6" d="m95.75,33.06h-33.9L25.82,8.9c7.26-4.41,15.79-6.94,24.91-6.94,20.59,0,38.15,12.93,45.02,31.11Z"/>
          <path class="cls-7" d="m95.75,67.06c-6.87,18.18-24.43,31.11-45.02,31.11-9.12,0-17.64-2.54-24.91-6.94l36.03-24.17h33.9Z"/>
        </g>
        <path class="cls-3" d="m97.76,39.86h-37.64l-10.14-6.8L20.06,13s0,0,.01-.01c1.77-1.46,3.64-2.8,5.61-4,.05-.03.09-.06.14-.08l36.03,24.17h33.9c.05.14.11.28.16.42.76,2.06,1.38,4.19,1.85,6.38Z"/>
        <path class="cls-9" d="m98.84,50.06c0,3.41-.36,6.74-1.03,9.95-.02.08-.04.17-.05.25h-37.64l-10.14,6.8-29.92,20.07c-5.17-4.28-9.42-9.62-12.44-15.68-.08-.16-.16-.32-.23-.48l5.87-3.91,25.52-17-25.52-17-5.87-3.91c.08-.16.15-.32.23-.48,3.02-6.07,7.27-11.4,12.44-15.68l29.92,20.07,10.14,6.8h37.64c.02.09.04.17.05.26.68,3.21,1.03,6.54,1.03,9.95Z"/>
        <path d="m26.52,50.06l-21.69,14.45c-1.44-4.56-2.21-9.41-2.21-14.45s.77-9.89,2.21-14.45l21.69,14.45Z"/>
      </g>
    </g>
  </g>
  <g class="cls-2">
    <g id="Netherlands">
      <g class="cls-10">
        <rect class="cls-8" x="-162.18" y="-4.44" width="186.89" height="109.03"/>
        <rect class="cls-3" x="-162.18" y="-4.44" width="186.89" height="72.69"/>
        <rect class="cls-5" x="-162.18" y="-4.44" width="186.89" height="36.35"/>
      </g>
    </g>
  </g>
</svg>