<?xml version="1.0" encoding="UTF-8"?>
<svg id="Layer_1" data-name="Layer 1" xmlns="http://www.w3.org/2000/svg" width="100" height="100" xmlns:xlink="http://www.w3.org/1999/xlink" viewBox="0 0 100 100">
  <defs>
    <style>
      .cls-1 {
        fill: none;
      }

      .cls-2 {
        fill: url(#linear-gradient);
      }

      .cls-3 {
        clip-path: url(#clippath);
      }

      .cls-4 {
        fill: #fff;
      }

      .cls-5 {
        fill: #f1e04c;
      }

      .cls-6 {
        fill: #8f2a35;
      }

      .cls-7 {
        fill: #c03c2c;
      }

      .cls-8 {
        fill: #364582;
      }

      .cls-9 {
        fill: #34773c;
      }

      .cls-10 {
        clip-path: url(#clippath-1);
      }

      .cls-11 {
        clip-path: url(#clippath-2);
      }
    </style>
    <clipPath id="clippath">
      <circle class="cls-1" cx="49.79" cy="50.06" r="47.83" transform="translate(-7.6 91.19) rotate(-80.78)"/>
    </clipPath>
    <linearGradient id="linear-gradient" x1="33.8" y1="49.64" x2="64.29" y2="49.64" gradientUnits="userSpaceOnUse">
      <stop offset="0" stop-color="#000"/>
      <stop offset=".05" stop-color="#000"/>
      <stop offset="1" stop-color="#000"/>
    </linearGradient>
    <clipPath id="clippath-1">
      <circle class="cls-1" cx="171.26" cy="50.06" r="49.06"/>
    </clipPath>
    <clipPath id="clippath-2">
      <rect class="cls-1" x="77.82" y="-4.44" width="186.89" height="109.03"/>
    </clipPath>
  </defs>
  <g class="cls-3">
    <g>
      <rect class="cls-7" x="-15.65" y=".75" width="130.56" height="32.36"/>
      <rect class="cls-5" x="-15.65" y="33.12" width="130.56" height="32.36"/>
      <rect class="cls-9" x="-15.65" y="65.48" width="130.56" height="32.36"/>
      <polygon class="cls-2" points="45.43 46.17 33.8 46.19 43.19 53.05 39.64 64.05 39.71 64.05 49.04 57.3 58.38 64.05 58.45 64.05 54.9 53.05 64.29 46.19 52.66 46.17 49.08 35.23 49.01 35.23 45.43 46.17"/>
    </g>
  </g>
  <g class="cls-10">
    <g id="Netherlands">
      <g class="cls-11">
        <rect class="cls-8" x="77.82" y="-4.44" width="186.89" height="109.03"/>
        <rect class="cls-4" x="77.82" y="-4.44" width="186.89" height="72.69"/>
        <rect class="cls-6" x="77.82" y="-4.44" width="186.89" height="36.35"/>
      </g>
    </g>
  </g>
</svg>