<?xml version="1.0" encoding="UTF-8"?>
<svg id="Layer_1" data-name="Layer 1" xmlns="http://www.w3.org/2000/svg" width="100" height="100" viewBox="0 0 100 100">
  <defs>
    <style>
      .cls-1 {
        fill: #2e2f77;
      }

      .cls-1, .cls-2, .cls-3 {
        fill-rule: evenodd;
      }

      .cls-2 {
        fill: #cd3834;
      }

      .cls-3 {
        fill: #fafafa;
      }
    </style>
  </defs>
  <path class="cls-1" d="m50.18,2.62c26.22,0,47.46,21.24,47.46,47.46s-21.24,47.42-47.46,47.42S2.76,76.26,2.76,50.08,24,2.62,50.18,2.62h0Z"/>
  <polygon class="cls-3" points="17.35 53.6 19.23 59.47 25 57.3 21.62 62.42 26.88 65.59 20.76 66.12 21.62 72.24 17.35 67.76 13.11 72.24 13.93 66.12 7.78 65.59 13.11 62.42 9.7 57.3 15.46 59.47 17.35 53.6"/>
  <polygon class="cls-3" points="76.33 57.59 77.26 60.36 80 59.33 78.36 61.78 80.89 63.28 77.93 63.53 78.36 66.44 76.33 64.31 74.3 66.44 74.73 63.53 71.81 63.28 74.3 61.78 72.7 59.33 75.44 60.36 76.33 57.59"/>
  <polygon class="cls-3" points="60 31.72 60.93 34.53 63.67 33.47 62.03 35.92 64.56 37.41 61.64 37.66 62.03 40.58 60 38.45 57.97 40.58 58.4 37.66 55.45 37.41 57.97 35.92 56.37 33.47 59.11 34.53 60 31.72"/>
  <polygon class="cls-3" points="76.33 14.04 77.26 16.82 80 15.78 78.36 18.24 80.89 19.73 77.93 19.98 78.36 22.9 76.33 20.76 74.3 22.9 74.73 19.98 71.81 19.73 74.3 18.24 72.7 15.78 75.44 16.82 76.33 14.04"/>
  <path class="cls-3" d="m90.85,27.38l.89,2.77,1.28-.46c.18.32.32.64.46.96l-.6.93,1.35.78c.07.25.18.53.28.78l-2.03.18.39,2.92-2.03-2.13-2.03,2.13.43-2.92-2.95-.25,2.53-1.49-1.6-2.45,2.74,1.03.89-2.77Z"/>
  <polygon class="cls-3" points="82.88 40.47 83.59 42.22 85.44 42.36 84.02 43.57 84.48 45.38 82.88 44.39 81.28 45.38 81.7 43.57 80.28 42.36 82.17 42.22 82.88 40.47"/>
  <path class="cls-3" d="m5.61,33.86v1.42h10.85v-10.89h27.25v-10.85h-23.76c-6.44,5.3-11.46,12.31-14.34,20.31h0Z"/>
  <path class="cls-3" d="m11.37,22.79l25.01,12.49h7.29v-3.63l-28.07-14.05c-1.53,1.64-2.95,3.34-4.23,5.19h0Z"/>
  <path class="cls-3" d="m11.76,22.26l31.91-15.97v-3.2c-13.09,1.78-24.48,8.93-31.91,19.18h0Z"/>
  <path class="cls-2" d="m7.78,28.84v6.44h6.51v-13.06h29.39v-6.51h-26.18c-3.95,3.74-7.26,8.18-9.71,13.13h0Z"/>
  <path class="cls-2" d="m19.94,13.54h1.99L42.39,3.26c-8.43,1.42-16.12,5.02-22.45,10.28h0Z"/>
  <polygon class="cls-2" points="21.94 24.39 43.71 35.28 43.71 32.86 26.77 24.39 21.94 24.39"/>
</svg>