<?xml version="1.0" encoding="UTF-8"?>
<svg id="Layer_1" data-name="Layer 1" xmlns="http://www.w3.org/2000/svg" width="100" height="100" viewBox="0 0 100 100">
  <defs>
    <style>
      .cls-1 {
        fill: #fff;
      }
    </style>
  </defs>
  <path id="Path_862" data-name="Path 862" class="cls-1" d="m90.77,98.24H8.84c-3.95-.1-7.13-3.28-7.23-7.23V9.08c.1-3.95,3.28-7.13,7.23-7.23h81.93c3.95.1,7.13,3.28,7.23,7.23v81.93c-.1,3.95-3.28,7.13-7.23,7.23ZM8.84,6.67c-1.25-.08-2.33.88-2.41,2.13,0,.09,0,.19,0,.28v81.93c-.08,1.25.88,2.33,2.13,2.41.09,0,.19,0,.28,0h81.93c1.25.08,2.33-.88,2.41-2.13,0-.09,0-.19,0-.28V9.08c.08-1.25-.88-2.33-2.13-2.41-.09,0-.19,0-.28,0H8.84Z"/>
  <path id="Path_863" data-name="Path 863" class="cls-1" d="m32.94,78.96c-.48,0-.96,0-.96-.48-.96,0-1.45-.96-1.45-1.93V23.54c0-.96.48-1.93,1.45-1.93.73-.49,1.68-.49,2.41,0l38.55,26.51c1.06.8,1.28,2.31.48,3.37-.14.18-.3.34-.48.48l-38.55,26.51c-.38.37-.92.55-1.45.48Zm2.41-50.6v43.86l31.81-21.69-31.81-22.17Z"/>
</svg>